<?xml version="1.0" encoding="UTF-8"?>
<svg xmlns="http://www.w3.org/2000/svg" version="1.1" xmlns:svg="http://www.w3.org/2000/svg" viewBox="0 0 28 28">
  <defs>
    <style>
      .cls-1 {
        fill: #636466;
      }
    </style>
  </defs>
  <!-- Generator: Adobe Illustrator 28.7.1, SVG Export Plug-In . SVG Version: 1.2.0 Build 142)  -->
  <g>
    <g id="Layer_1">
      <path class="cls-1" d="M27.2,14.5c0-3.5-3-6.3-6.5-6.3-.3,0-.7,0-1,0-2.8.4-4.7,2.4-5.7,4-1.1-1.5-2.9-3.5-5.7-4-.3,0-.7,0-1,0-3.5,0-6.4,2.8-6.5,6.3,0,3.5,3,6.3,6.5,6.3.3,0,.7,0,1,0,2.8-.4,4.7-2.4,5.7-3.9,1.1,1.5,2.9,3.5,5.7,4,.3,0,.7,0,1,0,3.5,0,6.4-2.8,6.5-6.3ZM8,18.5c-.2,0-.5,0-.7,0-2.3,0-4.2-1.8-4.3-4.1,0-2.3,2-4.1,4.3-4.1.2,0,.5,0,.7,0,2.6.4,4.2,3,4.8,4-.6,1.1-2.2,3.7-4.8,4h0ZM15.2,14.5c.5-1,2.2-3.6,4.8-4,.2,0,.5,0,.7,0,2.3,0,4.2,1.7,4.3,4,0,0,0,0,0,0,0,2.3-2,4.1-4.3,4.1-.2,0-.5,0-.7,0-2.6-.4-4.2-3-4.8-4h0ZM5.5,15.1h3.9v-1.3h-3.9v1.3h0ZM21.1,15.1h1.3v-1.3h-1.3v-1.3h-1.3v1.3h-1.3v1.3h1.3v1.3h1.3v-1.3h0Z"/>
    </g>
  </g>
</svg>