<?xml version="1.0" encoding="UTF-8"?>
<svg xmlns="http://www.w3.org/2000/svg" version="1.1" viewBox="0 0 800 800">
  <defs>
    <style>
      .cls-1 {
        stroke-width: 6.1px;
      }

      .cls-1, .cls-2 {
        fill: #fff;
      }

      .cls-1, .cls-3 {
        stroke: #000;
        stroke-miterlimit: 100;
      }

      .cls-3 {
        isolation: isolate;
        opacity: .2;
        stroke-width: 3px;
      }

      .cls-4 {
        fill: #95979a;
        stroke: #696a6d;
        stroke-linejoin: round;
        stroke-width: 28.4px;
      }
    </style>
  </defs>
  <!-- Generator: Adobe Illustrator 28.7.1, SVG Export Plug-In . SVG Version: 1.2.0 Build 142)  -->
  <g>
    <g id="Layer_1">
      <path class="cls-4" d="M741.1,398.1c-1.4,190.1-156.6,343.1-346.7,341.8-190.1-1.4-343.1-156.6-341.8-346.7C54,204,207.7,51.4,396.9,51.4c190.8.7,344.9,155.9,344.2,346.7h0Z"/>
      <path class="cls-3" d="M264.5,291.2c60.2-1.9,84,20.8,115.1,51.7,7.1,7,14.5,14.8,22.5,23l23.1-24.8c21.5-24.1,49.9-41,81.4-48.3,48.5-5.3,78-3,107.8,20.4,33,21.8,53.8,58,56.1,97.5.4,55.1-31.3,105.5-81.2,128.9-31.3,12.1-65.8,13.3-97.8,3.4-36.5-15.2-67.4-41.2-88.5-74.7-41.9,53.6-79.7,81.3-130.9,78.9-186.3-8.9-171.1-251.9-7.5-256.2h0ZM305.9,491.1c28.9-18.5,53.3-43.3,71.4-72.5-18.5-31.1-55.2-70.6-86.4-78.3-28.4-4.5-57.4,2.5-80.6,19.4-24.4,24-31.9,60.4-19.1,92.1,22.9,40,72,56.8,114.6,39.2h0ZM231.4,403.9h81.9v30.4h-82.1c0,.1.1-30.4.1-30.4ZM567.6,493.9c28.7-12.5,49.5-38.2,55.8-68.9.4-32.6-17.6-62.7-46.6-77.7-35.3-17.1-77.6-9.8-105,18.2-17,15.2-30.9,33.5-41.2,53.8,12.6,23.5,29.3,44.5,49.4,62.1,25.7,17.5,58.1,22.1,87.6,12.5h0ZM518.8,434.5l-27.2-.2v-30.4h27.3v-27l27.7-.2-.2,27.3h27.1v29.1l-25.5-.2v28h-29.1v-26.5Z"/>
      <path class="cls-1" d="M122.9,408.4c0,133.7,183.9,183.5,274.7,47.3,94.1,141.2,270.6,82,270.6-47.5s-175.7-191.9-270.7-47.2c-90-143-274.7-86.3-274.7,47.5h.1ZM171.2,408.4c0-96.5,136.4-127,199.8,0-64.7,122.2-199.8,96.5-199.8,0h0ZM424.2,408.4c57.1-129.4,197.2-93.8,196.8.2s-141.3,123.3-196.8-.2Z"/>
      <rect class="cls-2" x="222.4" y="394.9" width="80.9" height="26.7"/>
      <polygon class="cls-2" points="516.1 421.2 489.4 421.2 489.4 392.8 516.1 392.8 516.1 366.1 544.5 366.1 544.5 392.8 571.2 392.8 571.2 421.2 544.5 421.2 544.5 447.8 516.1 447.8 516.1 421.2"/>
    </g>
  </g>
</svg>